<svg data-name="Layer 1" xmlns="http://www.w3.org/2000/svg" viewBox="0 0 606.52858 355.26086">
    <path class="circle_path" d="M36,303.26429C36,155.6583,155.6583,36,303.26429,36S570.52858,155.6583,570.52858,303.26429"/>
    <g class="deshed_line">
        <line class="cls-2" x1="300.26983" y1="303.26452" x2="37.99723" y2="303.26452"/>
        <line class="cls-2" x1="567.53414" y1="303.26452" x2="305.26153" y2="303.26452"/>
        <line class="cls-3" x1="116.3973" y1="116.3973" x2="301.85204" y2="301.85226"/>
        <line class="cls-4" x1="303.26428" y1="41.08589" x2="303.26428" y2="301.25997"/>
        <line class="cls-3" x1="490.13125" y1="116.3973" x2="304.67654" y2="301.85226"/>
    </g>
    <path class="item_4 stroke" d="M405.56479,56.2788A268.24249,268.24249,0,0,1,550.23825,200.95226"/>
    <path class="item_5 stroke" d="M550.24694,200.95662A266.62759,266.62759,0,0,1,570.52,303.2562"/>
    <circle class="icon_circle" cx="492.24425" cy="114.27547" r="36"/>
    <circle class="icon_circle" cx="570.52858" cy="303.26429" r="36"/>
    <path class="item_3 stroke active" d="M200.9564,56.28186a268.24249,268.24249,0,0,1,204.59917,0"/>
    <path class="item_4 icon" d="M477.93337,136.64717a5.94708,5.94708,0,0,1-2.92578-.81006,11.92715,11.92715,0,0,1-2.94727-2.20508,8.198,8.198,0,0,1-1.86719-2.74512q-1.43994-3.824,1.75488-6.93018,5.84912-5.759,11.25-11.29492a1.82721,1.82721,0,0,1,1.19238-.71973,1.80526,1.80526,0,0,1,1.19238.76465q2.9707,3.15088,8.19043,8.19043a1.70274,1.70274,0,0,1,.65234,1.03467,1.6043,1.6043,0,0,1-.60742,1.08008q-2.88135,2.79053-11.87988,11.79A6.33,6.33,0,0,1,477.93337,136.64717Zm6.34473-11.07031a2.92628,2.92628,0,0,0,2.1377-1.01221,3.18812,3.18812,0,0,0,.85449-2.27295,2.78756,2.78756,0,0,0-.96777-2.13721,3.18416,3.18416,0,0,0-2.29492-.7876,2.95091,2.95091,0,0,0-2.0918.96777,2.87186,2.87186,0,0,0-.833,2.15967,3.08748,3.08748,0,0,0,.99023,2.16016A3.05561,3.05561,0,0,0,484.27809,125.57686Zm19.88965-14.66992a3.152,3.152,0,0,0,1.125,2.9248q0.22559,0.18091,1.03516.855a9.08523,9.08523,0,0,1,1.03516.94531,2.74545,2.74545,0,0,1,.585,1.08008,2.38132,2.38132,0,0,1-.27051,1.395,9.37962,9.37962,0,0,1-2.29492,2.79,6.64649,6.64649,0,0,1-3.50977,1.39453,5.54035,5.54035,0,0,1-4.67969-1.61963l-7.56055-7.42529q-2.06982-2.06909-3.68945-3.77979a6.38515,6.38515,0,0,1-1.82227-3.87012,6.54219,6.54219,0,0,1,.94434-4.07227,7.2893,7.2893,0,0,1,3.30762-2.90283,2.0192,2.0192,0,0,1,1.44043-.08984,3.01666,3.01666,0,0,1,1.08008.855,9.2375,9.2375,0,0,0,2.56445,2.06982,7.78686,7.78686,0,0,0,3.33008.855,7.37942,7.37942,0,0,1,3.87012,1.30518,7.88235,7.88235,0,0,1,2.58789,3.08252A9.56829,9.56829,0,0,1,504.16774,110.90694ZM501.69313,94.1667q0.26953-.80933-0.62988,2.25a19.498,19.498,0,0,1-.7207,2.29541q-0.53906,1.34985-2.47461.81006a1.59413,1.59413,0,0,1-1.08008-.72021,1.72675,1.72675,0,0,1-.13477-1.30518,42.74893,42.74893,0,0,1,1.125-4.36475,1.76892,1.76892,0,0,1,.85449-1.05762,2.03251,2.03251,0,0,1,1.418-.08984,2.09775,2.09775,0,0,1,1.2373.74219A2.34106,2.34106,0,0,1,501.69313,94.1667Zm3.8252,9.2251a2.38322,2.38322,0,0,1-1.35059-.35986,2.7292,2.7292,0,0,1-.85449-0.8999,1.57715,1.57715,0,0,1,.35938-2.07031q1.39453-1.48462,2.87988-2.87988a1.92765,1.92765,0,0,1,1.373-.60742,2.01816,2.01816,0,0,1,1.34961.6748,2.24357,2.24357,0,0,1,.7207,1.3501,1.63342,1.63342,0,0,1-.5625,1.32764q-0.36182.36035-1.26074,1.3501a9.94811,9.94811,0,0,1-1.21484,1.25977A4.047,4.047,0,0,1,505.51833,103.3918Zm7.01953,1.5752a1.90061,1.90061,0,0,1,2.07031,1.48486,1.98349,1.98349,0,0,1,0,1.43994,1.64836,1.64836,0,0,1-1.03516.8999,37.39912,37.39912,0,0,1-4.72461,1.26025,1.4382,1.4382,0,0,1-1.32812-.27,2.36628,2.36628,0,0,1-.71973-1.2373,2.30594,2.30594,0,0,1,.02246-1.395,1.48957,1.48957,0,0,1,.94531-0.87744q0.98877-.31494,2.42969-0.72021Q513.5276,104.65254,512.53786,104.967Z"/>
    <path class="item_5 icon" d="M554.41921,320.16175a14.67732,14.67732,0,0,0,1.97949-.13477,11.17465,11.17465,0,0,0,2.56543-.62988,8.36759,8.36759,0,0,0,2.56445-1.35059,3.39965,3.39965,0,0,1,.4043.248,3.12694,3.12694,0,0,0,.40625.24707l-0.99023,1.125a9.97,9.97,0,0,1-3.24023,2.11523,15.85362,15.85362,0,0,1-3.41992.94531,16.47161,16.47161,0,0,1-2.7002.22461h-1.125v-1.125a16.35765,16.35765,0,0,1,.22559-2.7002,15.6882,15.6882,0,0,1,.94434-3.41992,9.97,9.97,0,0,1,2.11523-3.24023l1.125-.99023a2.25884,2.25884,0,0,0,.27051.40625l0.22461,0.4043a8.324,8.324,0,0,0-1.34961,2.56445,11.02565,11.02565,0,0,0-.63086,2.56543,14.68086,14.68086,0,0,0-.13477,1.98047v0.76465h0.76563Zm35.77441-36.54v0.99023a21.6086,21.6086,0,0,1-.27051,2.69971,31.10685,31.10685,0,0,1-.76465,3.77979,27.24192,27.24192,0,0,1-1.5752,4.32031,22.47916,22.47916,0,0,1-3.96,5.40039q-3.19482,3.10547-11.47461,9.80957v7.4248l-4.90527,3.28516-1.5293-5.75977a2.7646,2.7646,0,0,1-.67578-0.08984l-2.07031.90039h-0.13477a1.49125,1.49125,0,0,1-.584-0.13574,8.14106,8.14106,0,0,1-1.08008-.6748,18.79188,18.79188,0,0,1-1.59766-1.48535,16.69249,16.69249,0,0,1-1.418-1.62012,6.35931,6.35931,0,0,1-.585-0.99023,2.82535,2.82535,0,0,1-.18066-0.53906l0.04492-.13477,0.85547-1.89062a2.3834,2.3834,0,0,1-.22461-0.85547l-5.58008-1.48437,3.28516-4.9502H563.013q6.70605-8.18994,9.99023-11.47559a18.68409,18.68409,0,0,1,5.40039-3.7793,27.48128,27.48128,0,0,1,4.32031-1.665,26.46862,26.46862,0,0,1,3.7793-.81006,21.71475,21.71475,0,0,1,2.7002-.27q0.49512,0,.99023-0.04492v0.04492Zm-9.15723,13.77051a3.26075,3.26075,0,0,0,0-4.63477,3.31432,3.31432,0,0,0-4.63574,0,3.26075,3.26075,0,0,0,0,4.63477A3.31677,3.31677,0,0,0,581.03639,297.39222Z"/>
    <path class="item_2 stroke" d="M56.27858,200.964A268.24249,268.24249,0,0,1,200.952,56.29055"/>
    <path class="item_1 stroke" d="M36.00856,303.27281A266.31052,266.31052,0,0,1,56.28164,200.97323"/>
    <circle class="icon_circle" cx="36" cy="303.26429" r="36"/>
    <path class="item_1 icon" d="M55.6875,292.6437v20.47461l-3.46484.18066q-3.87085.31494-6.61523,0.76465a41.187,41.187,0,0,0-6.43506,1.665,7.49573,7.49573,0,0,0-3.1499,1.84473A10.50651,10.50651,0,0,0,32.5127,315.549a38.73217,38.73217,0,0,0-3.96-1.03516,61.03759,61.03759,0,0,0-11.29541-1.35059l-0.94482-.04492V292.6437h1.08008v18.76465l2.74512,0.13574q3.64453,0.31494,6.34473.80957a34.82889,34.82889,0,0,1,6.165,1.71,7.70026,7.70026,0,0,1,3.28516,2.11523,8.4704,8.4704,0,0,1,3.01514-2.02539,25.52159,25.52159,0,0,1,3.55469-1.125,49.47711,49.47711,0,0,1,11.74512-1.5752l0.31494-.04492V292.6437h1.125ZM21.9375,311.049l-3.87012-.31543V289.13394l2.25,0.08984a52.07361,52.07361,0,0,1,9.99023,1.75488,14.39541,14.39541,0,0,1,4.5,1.98047l0.27,0.17969a1.75358,1.75358,0,0,1,.71973,1.48438v20.83594a6.98712,6.98712,0,0,0-2.20459-1.665,20.08907,20.08907,0,0,0-2.52-.99023A44.936,44.936,0,0,0,21.9375,311.049Zm14.22021-16.69531a1.2958,1.2958,0,0,1,.40479-0.94531,10.50655,10.50655,0,0,1,3.51025-1.93457,36.73011,36.73011,0,0,1,7.78467-1.7998q1.08032-.13477,2.61035-0.27051,8.1438-.76465,2.56494-0.22461l0.855-.04492v21.64453l-1.80029.08984a44.706,44.706,0,0,0-12.105,2.25,14.18715,14.18715,0,0,0-2.06982.90039,7.64117,7.64117,0,0,0-1.75488,1.44043V294.35367Z"/>
    <path class="center_circle" d="M403.26577,307.26086a99.82559,99.82559,0,0,1-12.25,48h-175.5A100.00862,100.00862,0,1,1,403.26577,307.26086Z"/>
    <path class="outer_stroke" d="M303.26577,198.92089a109.701,109.701,0,0,0-109.58,109.58c0,1.5.03,2.99005,0.09,4.48h10.44c-0.07-1.48-.1-2.98-0.1-4.48a99.15,99.15,0,0,1,198.3,0c0,1.5-.03,3-0.1,4.48h10.44c0.06-1.49.09-2.98,0.09-4.48A109.701,109.701,0,0,0,303.26577,198.92089Z"/>
    <path class="center_circle_stroke" d="M303.26577,202.26086a105.02152,105.02152,0,0,0-93.4,153h11.41a95,95,0,1,1,163.98,0h11.41A105.02152,105.02152,0,0,0,303.26577,202.26086Z"/>
    <circle class="icon_circle" cx="114.27989" cy="114.27991" r="36"/>
    <path class="item_2 icon" d="M91.77989,129.84691q0.27026-3.86938,4.85986-7.4248a15.43424,15.43424,0,0,1,2.56494-1.52979,9.83442,9.83442,0,0,0,2.52-1.665,3.78459,3.78459,0,0,0,1.10254-2.04785,7.48032,7.48032,0,0,0-.20215-2.90234,6.21409,6.21409,0,0,1,.06738-3.46484,5.97761,5.97761,0,0,1,2.09229-2.65527,18.62115,18.62115,0,0,0,2.87988-2.87988,1.37228,1.37228,0,0,1,1.05762-.6748,2.13742,2.13742,0,0,1,1.14746.71973q6.52441,6.70605,11.56494,11.56494a1.838,1.838,0,0,1,.74268,1.26025,1.59423,1.59423,0,0,1-.76514,1.10254,6.95779,6.95779,0,0,0-1.32715,1.32715,11.04376,11.04376,0,0,1-3.8252,3.28516,7.279,7.279,0,0,1-5.12988.2251,3.43272,3.43272,0,0,0-2.92529.40479,5.41412,5.41412,0,0,0-1.98,2.52,14.53789,14.53789,0,0,1-5.80469,6.84033,9.13235,9.13235,0,0,1-3.78027,1.21484,4.47751,4.47751,0,0,1-3.6001-1.2373A5.59209,5.59209,0,0,1,91.77989,129.84691ZM99.295,129.802a2.24727,2.24727,0,0,0,1.55225-.60742,2.50363,2.50363,0,0,0,0-3.21729,2.07932,2.07932,0,0,0-1.62012-.60791,2.28791,2.28791,0,0,0-1.59717.58545,2.19551,2.19551,0,0,0-.62988,1.55225Q96.95469,129.667,99.295,129.802ZM118.91466,118.237q-1.30518-1.48462-1.34961-1.52979l-6.88525-6.84033a11.62958,11.62958,0,0,0-1.43994-1.30469,0.91339,0.91339,0,0,0-.98975.04492,10.9288,10.9288,0,0,0-1.44043,1.3501l-0.22461.22461a0.43187,0.43187,0,0,1-.2251.18018,1.25776,1.25776,0,0,0-.62988.99023,1.96371,1.96371,0,0,0,.71973,1.07959q1.34985,1.30591,3.8252,3.8252,2.6543,2.65576,3.87012,3.87012a3.0683,3.0683,0,0,1,.44971.54,1.399,1.399,0,0,0,.60742.44971,0.79092,0.79092,0,0,0,.69775-0.22461q0.62915-.49512,1.48486-1.30518A11.43736,11.43736,0,0,1,118.91466,118.237Zm5.04-1.62012q-0.90015-.81006-0.94482-0.855l-12.01514-11.96973a1.25021,1.25021,0,0,1-.54-0.94531,1.89394,1.89394,0,0,1,.63037-0.98975q4.13965-4.05029,7.4248-7.42529a2.47827,2.47827,0,0,1,1.6875-.94482,2.52124,2.52124,0,0,1,1.6875.8999q4.72485,4.86035,10.43994,10.43994a2.71173,2.71173,0,0,1,1.0127,1.75537,2.47034,2.47034,0,0,1-1.0127,1.75488q-1.53,1.44067-3.68994,3.6001-4.54541,4.59009-3.6001,3.645Zm-3.96-20.20508q-2.47485,2.79126-2.69971,3.01514a0.82951,0.82951,0,0,0-.2251.60742,0.78586,0.78586,0,0,0,.35986.47266l0.4502,0.35986a1.578,1.578,0,0,1,.38232.67529,1.0451,1.0451,0,0,1-.15723.71973,3.20058,3.20058,0,0,0,.49463,3.96,3.03356,3.03356,0,0,0,1.82275.99023,3.57932,3.57932,0,0,0,2.04736-.35986,1.41015,1.41015,0,0,1,2.11523.8999,0.95462,0.95462,0,0,1-.04541.855,3.91655,3.91655,0,0,1-.65234.585,7.25452,7.25452,0,0,0-.65234.54,4.53416,4.53416,0,0,0-.67529,1.125,1.13434,1.13434,0,0,0,.36035,1.16992q0.94482,0.94482,2.29492-.35986-1.98047,1.98047,1.89014-1.98,1.12427-1.12427,1.98-1.89014a1.802,1.802,0,0,0,.74219-1.16992,1.72872,1.72872,0,0,0-.69727-1.21533q-1.62012-1.574-3.96-3.91455-4.81567-4.86035-3.915-3.96045Zm16.78516,28.93506a5.98134,5.98134,0,0,1-3.645,5.40039,5.43132,5.43132,0,0,1-3.33008.38232,5.5428,5.5428,0,0,1-2.96973-1.64258,5.86862,5.86862,0,0,1-1.6875-2.96973,5.17593,5.17593,0,0,1,.42725-3.28516q0.76465-1.66406,1.98-3.78027l2.11523-3.645a1.56028,1.56028,0,0,1,1.10254-.80957,1.1148,1.1148,0,0,1,1.10254.53955q2.20386,3.46582,1.84473,2.88037a32.68873,32.68873,0,0,1,1.665,2.96973,21.73136,21.73136,0,0,1,1.3501,3.19531,1.19168,1.19168,0,0,1,.04492.35986v0.40479Zm-5.895-6.38965q0.35962-.62988-1.52979,2.65479a25.92337,25.92337,0,0,0-1.30518,2.52,3.22638,3.22638,0,0,0-.2251,2.16016,3.34225,3.34225,0,0,0,3.28516,2.29492,3.34106,3.34106,0,0,0,1.84473-.855,2.89163,2.89163,0,0,0,.76514-3.78027q-0.49585-.98877-1.3501-2.38477Q130.56944,118.41771,130.88487,118.95726Z"/>
    <circle class="icon_circle" cx="303.26429" cy="36" r="36"/>
    <path class="item_3 icon active" d="M322.95179,31.85986q-1.03564.63062-3.01465,1.75537a15.55848,15.55848,0,0,0-1.44043.855,0.3402,0.3402,0,0,0-.20215.17969,0.60155,0.60155,0,0,0-.06738.27l-0.0459,2.07031a0.62255,0.62255,0,0,0,.31543.585l3.96,2.25,0.49512,0.31494L321.73695,43.605a0.504,0.504,0,0,1-.18066.18018,0.43193,0.43193,0,0,1-.22461.08984q-2.56494-.22485-4.41016-0.4502a1.64781,1.64781,0,0,0-.69727.04541,0.92339,0.92339,0,0,0-.4502.44971,14.4154,14.4154,0,0,1-1.0127,1.395,0.50956,0.50956,0,0,0-.08984.62988l2.02539,4.63525-3.15039,2.16016a1.39427,1.39427,0,0,1-.22461-0.02295,0.82357,0.82357,0,0,1-.22559-0.06738q-1.75488-1.48462-3.55469-3.06006a0.63479,0.63479,0,0,0-.6748-0.13477Q307.966,49.77,306.93128,50.085a0.60556,0.60556,0,0,0-.49414.49512l-1.125,4.81494h-4.0957l-1.08008-4.77a0.72419,0.72419,0,0,0-.54-0.585,15.94081,15.94081,0,0,1-1.88965-.585,0.61208,0.61208,0,0,0-.6748.13477q-1.66553,1.44067-3.55469,3.01514a0.43126,0.43126,0,0,1-.248.1123,0.25354,0.25354,0,0,1-.20215-0.02246l-3.19531-2.11475,2.02539-4.5a0.86993,0.86993,0,0,0,.1123-0.47266,0.5894,0.5894,0,0,0-.248-0.38232,12.72955,12.72955,0,0,1-1.0791-1.48486,0.6612,0.6612,0,0,0-.67578-0.31543l-4.5.4502a1.26482,1.26482,0,0,1-.47266-0.06738,0.51181,0.51181,0,0,1-.24707-0.3374l-1.16992-3.33008,0.31543-.18018,4.13965-2.38477a0.61024,0.61024,0,0,0,.36035-0.585q-0.04541-.9895-0.0459-1.98047a0.61634,0.61634,0,0,0-.31445-0.62988l-4.45508-2.52,1.30469-3.55469a0.15635,0.15635,0,0,1,.13574-0.13525,0.86651,0.86651,0,0,1,.26953-0.04492q2.78906,0.22559,4.41016.40479a1.03322,1.03322,0,0,0,.65234-0.02246,0.97652,0.97652,0,0,0,.42773-0.42725,8.224,8.224,0,0,1,1.03516-1.395,0.57135,0.57135,0,0,0,.08984-0.67529l-2.07031-4.58984q2.33936-1.57471,3.15039-2.16016a0.35194,0.35194,0,0,1,.24707,0,1.574,1.574,0,0,1,.248.09033q1.88965,1.62012,3.55469,3.06006a0.61208,0.61208,0,0,0,.6748.13477,16.396,16.396,0,0,1,1.93555-.62988,0.60556,0.60556,0,0,0,.49414-0.49512l1.08008-4.81494h4.14063l1.08008,4.81494a0.60441,0.60441,0,0,0,.49414.49512,16.35936,16.35936,0,0,1,1.93555.62988,0.61208,0.61208,0,0,0,.6748-0.13477l3.50977-3.06006a0.81462,0.81462,0,0,1,.293-0.15771,0.4027,0.4027,0,0,1,.292.11279l3.06055,2.11475-2.07031,4.63525a0.52783,0.52783,0,0,0,.08984.585,19.10235,19.10235,0,0,1,1.21484,1.665,0.63555,0.63555,0,0,0,.63086.27l4.5-.4502a0.856,0.856,0,0,1,.49414.04492,0.584,0.584,0,0,1,.27051.35986Zm-13.09473,4.32031a6.10147,6.10147,0,0,0-.78809-3.19531,6.67,6.67,0,0,0-2.29492-2.40723,6.15107,6.15107,0,0,0-3.17187-.96777,6.86508,6.86508,0,0,0-3.39746.76514,6.39281,6.39281,0,0,0-2.47559,2.25,6.22657,6.22657,0,0,0-.99023,3.17236,5.864,5.864,0,0,0,.78809,3.21777,6.70993,6.70993,0,0,0,2.29492,2.38477,6.13552,6.13552,0,0,0,3.14941.94531,7.00764,7.00764,0,0,0,3.39746-.74268,6.22363,6.22363,0,0,0,2.47559-2.22754A6.44291,6.44291,0,0,0,309.85706,36.18018Z"/>
</svg>